<svg width="22" height="22" viewBox="0 0 22 22" fill="none" xmlns="http://www.w3.org/2000/svg">
<path id="Cal Soild Icon" d="M2.49999 0.5C1.41034 0.5 0.466213 1.39059 0.577262 2.54166C1.18135 8.80328 5.5212 19.1629 19.2762 21.2855C20.4732 21.4702 21.5 20.519 21.5 19.3425V16.6457C21.5 15.7438 20.8963 14.9535 20.0262 14.7162L16.4714 13.7467C15.7789 13.5578 15.0384 13.7545 14.5309 14.262L13.9401 14.8528C13.6213 15.1716 13.1533 15.2259 12.8086 15.004C11.0057 13.8434 8.3629 11.7158 6.90102 9.16856C6.71904 8.85148 6.78115 8.42595 7.08201 8.12509L7.79781 7.40929C8.26188 6.94522 8.46874 6.28301 8.35133 5.6373L7.71587 2.14223C7.54296 1.19125 6.7147 0.5 5.74813 0.5H2.49999Z" fill="white"/>
</svg>
